# xmcd
#
# Track frame offsets: 
#        150
#        20521
#        53230
#        70896
#        93096
#        113321
#        127428
#        151544
#        159372
#        181610
#        202748
#        231634
#
# Disc length: 3493 seconds
#
# Revision: 2
# Processed by: cddbd v1.5.2PL0 Copyright (c) Steve Scherf et al.
# Submitted via: ExactAudioCopy v1.0b3
#
DISCID=8d0da30c
DTITLE=Michael Messer - Second Mind
DYEAR=2006
DGENRE=Blues
TTITLE0=Locomotive Skin
TTITLE1=Blue Letters
TTITLE2=Hummingbirds In My Soul
TTITLE3=Big Wind
TTITLE4=Love
TTITLE5=Jinx Alright
TTITLE6=Shine On
TTITLE7=In The Pocket
TTITLE8=Riverboat
TTITLE9=Tail Feather Blues
TTITLE10=Bluer Than Blue
TTITLE11=Painting The Blues
EXTD=YEAR: 2002 ID3G:   0
EXTT0=
EXTT1=
EXTT2=
EXTT3=
EXTT4=
EXTT5=
EXTT6=
EXTT7=
EXTT8=
EXTT9=
EXTT10=
EXTT11=
PLAYORDER=
